<?xml version="1.0" encoding="utf-8"?>
<!-- Generator: Adobe Illustrator 22.0.0, SVG Export Plug-In . SVG Version: 6.00 Build 0)  -->
<svg version="1.1" id="Layer_1" xmlns="http://www.w3.org/2000/svg" xmlns:xlink="http://www.w3.org/1999/xlink" x="0px" y="0px"
	 viewBox="0 0 103.5 38" style="enable-background:new 0 0 103.5 38;" xml:space="preserve">
<style type="text/css">
	.st0{fill:#231F20;}
</style>
<path class="st0" d="M0,10.5v17.1C0,28.9,1.1,30,2.5,30h17.1c1.4,0,2.5-1.1,2.5-2.5v-17C21.9,9.1,20.8,8,19.4,8h-17
	C1.1,8,0,9.1,0,10.5z M9.8,27.5H3.7c-0.7,0-1.2-0.6-1.2-1.2v-6.1h6.1c0.7,0,1.2,0.6,1.2,1.2V27.5z M8.5,17.8h-6v-6.1
	c0-0.7,0.5-1.2,1.2-1.2h6.1v6.1C9.8,17.3,9.2,17.8,8.5,17.8z M18.3,27.5h-6.1v-6.1c0-0.6,0.5-1.2,1.2-1.2h6.1v6.1
	C19.4,27.1,18.9,27.5,18.3,27.5z M19.4,17.8h-6.1c-0.7,0-1.2-0.5-1.2-1.2v-6.1h6.1c0.6,0,1.2,0.5,1.2,1.2V17.8z"/>
<g>
	<path class="st0" d="M43.8,8.3c4,0,6.8,2.8,6.8,6.8c0,4-2.8,6.8-6.8,6.8h-4.9v7.5h-2.6V8.3H43.8z M38.9,19.5h4.2
		c3,0,4.7-1.7,4.7-4.5c0-2.8-1.7-4.4-4.7-4.4h-4.2V19.5z"/>
	<path class="st0" d="M53.3,8.3h2.5v21.1h-2.5V8.3z"/>
	<path class="st0" d="M58.7,25.1c0-2.6,2-4.2,5.5-4.5l4.4-0.2v-1.3c0-1.9-1.2-3-3.3-3c-2,0-3.2,0.9-3.5,2.4h-2.5
		c0.2-2.6,2.4-4.7,6-4.7c3.6,0,5.8,1.9,5.8,5v10.5h-2.4v-2.6h-0.1c-0.9,1.7-2.8,2.9-4.9,2.9C60.7,29.7,58.7,27.9,58.7,25.1z
		 M68.5,23.7v-1.2l-4.1,0.2c-2.1,0.1-3.2,1-3.2,2.5c0,1.5,1.2,2.4,3,2.4C66.7,27.5,68.5,25.8,68.5,23.7z"/>
	<path class="st0" d="M74.3,14.2h2.4v2.4h0.1c0.8-1.6,2.5-2.7,4.8-2.7c3.3,0,5.3,2.2,5.3,5.6v9.9h-2.5V20c0-2.5-1.2-3.8-3.5-3.8
		c-2.4,0-4,1.7-4,4.3v9h-2.5V14.2z"/>
	<path class="st0" d="M89.4,21.8c0-4.9,2.8-7.9,7.1-7.9c4.2,0,7,3,7,7.9c0,4.8-2.8,7.9-7,7.9C92.2,29.7,89.4,26.7,89.4,21.8z
		 M100.9,21.8c0-3.6-1.8-5.6-4.5-5.6S92,18.2,92,21.8s1.8,5.6,4.5,5.6S100.9,25.4,100.9,21.8z"/>
</g>
</svg>
