<?xml version="1.0" encoding="utf-8"?>
<!-- Generator: Adobe Illustrator 24.0.3, SVG Export Plug-In . SVG Version: 6.00 Build 0)  -->
<svg version="1.1" id="Layer_1" xmlns="http://www.w3.org/2000/svg" xmlns:xlink="http://www.w3.org/1999/xlink" x="0px" y="0px"
	 viewBox="0 0 1024 1024" style="enable-background:new 0 0 1024 1024;" xml:space="preserve">
<style type="text/css">
	.st0{fill:none;}
</style>
<path class="st0" d="M0,0h1024v1024H0V0z"/>
<path d="M170.7,554.7h256c23.5,0,42.7-19.2,42.7-42.7V170.7c0-23.5-19.2-42.7-42.7-42.7h-256c-23.5,0-42.7,19.2-42.7,42.7V512
	C128,535.5,147.2,554.7,170.7,554.7z M170.7,896h256c23.5,0,42.7-19.2,42.7-42.7V682.7c0-23.5-19.2-42.7-42.7-42.7h-256
	c-23.5,0-42.7,19.2-42.7,42.7v170.7C128,876.8,147.2,896,170.7,896z M597.3,896h256c23.5,0,42.7-19.2,42.7-42.7V512
	c0-23.5-19.2-42.7-42.7-42.7h-256c-23.5,0-42.7,19.2-42.7,42.7v341.3C554.7,876.8,573.9,896,597.3,896z M554.7,170.7v170.7
	c0,23.5,19.2,42.7,42.7,42.7h256c23.5,0,42.7-19.2,42.7-42.7V170.7c0-23.5-19.2-42.7-42.7-42.7h-256
	C573.9,128,554.7,147.2,554.7,170.7z"/>
</svg>
